<?xml version="1.0" encoding="UTF-8" standalone="no"?>
<!-- Generator: Adobe Illustrator 16.0.0, SVG Export Plug-In . SVG Version: 6.00 Build 0)  -->

<svg
   xmlns:dc="http://purl.org/dc/elements/1.1/"
   xmlns:cc="http://creativecommons.org/ns#"
   xmlns:rdf="http://www.w3.org/1999/02/22-rdf-syntax-ns#"
   xmlns:svg="http://www.w3.org/2000/svg"
   xmlns="http://www.w3.org/2000/svg"
   xmlns:sodipodi="http://sodipodi.sourceforge.net/DTD/sodipodi-0.dtd"
   xmlns:inkscape="http://www.inkscape.org/namespaces/inkscape"
   version="1.1"
   id="svg2"
   inkscape:output_extension="org.inkscape.output.svg.inkscape"
   sodipodi:docname="FallaLateraDer.svg"
   inkscape:version="0.91 r13725"
   sodipodi:version="0.32"
   x="0px"
   y="0px"
   width="4mm"
   height="3mm"
   viewBox="0 0 14.173228 10.629921"
   enable-background="new 0 0 580 580"
   xml:space="preserve"><metadata
     id="metadata3009"><rdf:RDF><cc:Work
         rdf:about=""><dc:format>image/svg+xml</dc:format><dc:type
           rdf:resource="http://purl.org/dc/dcmitype/StillImage" /><dc:title></dc:title></cc:Work></rdf:RDF></metadata><defs
     id="defs2999"><marker
       inkscape:stockid="Arrow2Sstart"
       orient="auto"
       refY="0"
       refX="0"
       id="Arrow2Sstart"
       style="overflow:visible"><path
         id="path3815"
         style="fill-rule:evenodd;stroke-width:0.625;stroke-linejoin:round"
         d="M 8.7185878,4.0337352 -2.2072895,0.01601326 8.7185884,-4.0017078 c -1.7454984,2.3720609 -1.7354408,5.6174519 -6e-7,8.035443 z"
         transform="matrix(0.3,0,0,0.3,-0.69,0)"
         inkscape:connector-curvature="0" /></marker><marker
       inkscape:stockid="Arrow2Send"
       orient="auto"
       refY="0"
       refX="0"
       id="Arrow2Send"
       style="overflow:visible"><path
         id="path3818"
         style="fill-rule:evenodd;stroke-width:0.625;stroke-linejoin:round"
         d="M 8.7185878,4.0337352 -2.2072895,0.01601326 8.7185884,-4.0017078 c -1.7454984,2.3720609 -1.7354408,5.6174519 -6e-7,8.035443 z"
         transform="matrix(-0.3,0,0,-0.3,0.69,0)"
         inkscape:connector-curvature="0" /></marker><marker
       inkscape:stockid="Arrow1Mstart"
       orient="auto"
       refY="0"
       refX="0"
       id="Arrow1Mstart"
       style="overflow:visible"><path
         id="path3791"
         d="M 0,0 5,-5 -12.5,0 5,5 0,0 Z"
         style="fill-rule:evenodd;stroke:#000000;stroke-width:1pt"
         transform="matrix(0.4,0,0,0.4,4,0)"
         inkscape:connector-curvature="0" /></marker><marker
       inkscape:stockid="Club"
       orient="auto"
       refY="0"
       refX="0"
       id="Club"
       style="overflow:visible"><path
         id="path4014"
         d="m -1.5971367,-7.0977635 c -1.8892507,0 -3.426382,1.5371314 -3.426382,3.4263822 0,0.6566798 0.2383531,1.2269257 0.5594092,1.7481542 -0.038751,0.032111 -0.079672,0.058463 -0.1165436,0.093235 -0.6224234,-0.8549928 -1.5893983,-1.4451409 -2.7271199,-1.4451409 -1.8892515,-1e-7 -3.426382,1.5371314 -3.426382,3.42638214 0,1.88925076 1.5371305,3.42638216 3.426382,3.42638216 0.9934462,0 1.868619,-0.4420611 2.4940326,-1.1188187 -0.124687,0.3548915 -0.2097783,0.7214874 -0.2097783,1.1188187 0,1.8892506 1.5371313,3.4263822 3.426382,3.4263822 1.88925064,0 3.4263821,-1.5371316 3.4263821,-3.4263822 0,-0.7933959 -0.3155586,-1.4938285 -0.7691878,-2.0744763 C 2.4152718,1.7663868 3.7718375,2.2973711 4.7661444,3.8340272 4.0279463,3.0958289 3.5540908,1.7534117 3.5540908,-0.05852936 l -0.6293354,-0.04661745 0.5827179,-0.0233087 c 0,-1.81194109 0.4505466,-3.15435829 1.188745,-3.89255659 -0.9590906,1.4822308 -2.2571634,2.0263625 -3.5662345,2.3075635 0.4041964,-0.5619092 0.6992616,-1.213407 0.6992616,-1.9579327 0,-1.8892506 -1.53713146,-3.4263822 -3.4263821,-3.4263822 z"
         style="fill-rule:evenodd;stroke:#000000;stroke-width:0.74587913pt"
         transform="scale(0.6,0.6)"
         inkscape:connector-curvature="0" /></marker><marker
       inkscape:stockid="Arrow2Mend"
       orient="auto"
       refY="0"
       refX="0"
       id="Arrow2Mend"
       style="overflow:visible"><path
         id="path3812"
         style="fill-rule:evenodd;stroke-width:0.625;stroke-linejoin:round"
         d="M 8.7185878,4.0337352 -2.2072895,0.01601326 8.7185884,-4.0017078 c -1.7454984,2.3720609 -1.7354408,5.6174519 -6e-7,8.035443 z"
         transform="scale(-0.6,-0.6)"
         inkscape:connector-curvature="0" /></marker><marker
       inkscape:stockid="Arrow2Mstart"
       orient="auto"
       refY="0"
       refX="0"
       id="Arrow2Mstart"
       style="overflow:visible"><path
         id="path3809"
         style="fill-rule:evenodd;stroke-width:0.625;stroke-linejoin:round"
         d="M 8.7185878,4.0337352 -2.2072895,0.01601326 8.7185884,-4.0017078 c -1.7454984,2.3720609 -1.7354408,5.6174519 -6e-7,8.035443 z"
         transform="scale(0.6,0.6)"
         inkscape:connector-curvature="0" /></marker><marker
       inkscape:stockid="Arrow2Lstart"
       orient="auto"
       refY="0"
       refX="0"
       id="Arrow2Lstart"
       style="overflow:visible"><path
         id="path3803"
         style="fill-rule:evenodd;stroke-width:0.625;stroke-linejoin:round"
         d="M 8.7185878,4.0337352 -2.2072895,0.01601326 8.7185884,-4.0017078 c -1.7454984,2.3720609 -1.7354408,5.6174519 -6e-7,8.035443 z"
         transform="matrix(1.1,0,0,1.1,1.1,0)"
         inkscape:connector-curvature="0" /></marker><inkscape:perspective
       inkscape:vp_z="579.99999 : 290.00001 : 1"
       inkscape:vp_y="0 : 1000 : 0"
       inkscape:vp_x="0 : 290.00001 : 1"
       sodipodi:type="inkscape:persp3d"
       id="perspective24"
       inkscape:persp3d-origin="290 : 193.33333 : 1" /><inkscape:perspective
       inkscape:vp_z="612.16399 : 306.58552 : 1"
       inkscape:vp_y="0 : 1000 : 0"
       inkscape:vp_x="0 : 306.58552 : 1"
       sodipodi:type="inkscape:persp3d"
       id="perspective2683"
       inkscape:persp3d-origin="306.082 : 204.39035 : 1" /><inkscape:perspective
       inkscape:vp_z="612.16399 : 306.58552 : 1"
       inkscape:vp_y="0 : 1000 : 0"
       inkscape:vp_x="0 : 306.58552 : 1"
       sodipodi:type="inkscape:persp3d"
       id="perspective2953"
       inkscape:persp3d-origin="306.082 : 204.39035 : 1" /><inkscape:perspective
       inkscape:vp_z="361.87201 : 245.89302 : 1"
       inkscape:vp_y="0 : 1000 : 0"
       inkscape:vp_x="0 : 245.89302 : 1"
       sodipodi:type="inkscape:persp3d"
       id="perspective3071"
       inkscape:persp3d-origin="180.936 : 163.92867 : 1" /><inkscape:perspective
       inkscape:vp_z="0.99999999 : 0.50000001 : 1"
       inkscape:vp_y="0 : 1000 : 0"
       inkscape:vp_x="0 : 0.50000001 : 1"
       sodipodi:type="inkscape:persp3d"
       id="perspective3724"
       inkscape:persp3d-origin="0.49999999 : 0.33333334 : 1" /></defs><sodipodi:namedview
     showgrid="false"
     inkscape:cy="5.9684108"
     inkscape:cx="7.0866142"
     inkscape:zoom="35.771667"
     pagecolor="#ffffff"
     bordercolor="#666666"
     guidetolerance="10.0"
     objecttolerance="10.0"
     gridtolerance="10.0"
     borderopacity="1.0"
     id="base"
     inkscape:window-maximized="1"
     inkscape:current-layer="svg2"
     inkscape:window-y="-8"
     inkscape:window-x="-8"
     inkscape:pageopacity="0.0"
     inkscape:pageshadow="2"
     inkscape:window-width="1024"
     inkscape:window-height="706"
     inkscape:snap-bbox="true"
     inkscape:bbox-paths="true"
     inkscape:bbox-nodes="true"
     inkscape:snap-bbox-edge-midpoints="true"
     inkscape:snap-bbox-midpoints="true"
     inkscape:object-paths="true"
     inkscape:snap-intersection-paths="true"
     inkscape:object-nodes="true"
     inkscape:snap-smooth-nodes="true"
     inkscape:snap-midpoints="true"
     inkscape:snap-object-midpoints="true"
     inkscape:snap-center="true"
     inkscape:snap-page="true"
     units="mm" /><path
     style="fill:none;stroke:#000009;stroke-width:0.6699025;stroke-linecap:butt;stroke-linejoin:miter;stroke-miterlimit:4;stroke-dasharray:none;stroke-opacity:1"
     d="m 0.00231706,2.0049469 14.06543494,0.098996 -4.018008,-1.6041416 0,1.5758615"
     id="path3035-1-1"
     inkscape:connector-curvature="0"
     sodipodi:nodetypes="ccc" /><path
     style="fill:none;stroke:#000009;stroke-width:0.66968507;stroke-linecap:butt;stroke-linejoin:miter;stroke-miterlimit:4;stroke-dasharray:none;stroke-opacity:1"
     d="M 14.164459,8.6303916 0.09902406,8.5313956 4.1170311,10.135537 l 0,-1.5758613"
     id="path3035-1-1-0"
     inkscape:connector-curvature="0"
     sodipodi:nodetypes="ccc" /><path
     style="fill:#000000;fill-opacity:1;stroke:#000000;stroke-width:0.0187211;stroke-miterlimit:4;stroke-dasharray:none;stroke-opacity:1"
     d="m 3.7591381,9.2571002 0,-0.3631897 -0.901552,0.00127 -0.901551,0.00127 0.782742,0.3145962 c 0.430508,0.1730279 0.836207,0.3358918 0.901552,0.3619198 l 0.118809,0.047324 0,-0.3631898 z"
     id="path4932"
     inkscape:connector-curvature="0" /><path
     style="fill:#000000;fill-opacity:1;stroke:#000000;stroke-width:0.0187211;stroke-miterlimit:4;stroke-dasharray:none;stroke-opacity:1"
     d="m 14.048851,2.426924 c 0.0012,-0.00254 0.0303,-0.1447866 0.06459,-0.3161064 L 14.175781,1.799327 11.965642,0.91944978 9.7555036,0.03957256 9.7481036,0.8928721 9.7407036,1.7461716 6.2397395,1.7277156 C 4.3142092,1.7175646 2.1255101,1.7010696 1.3759651,1.6910596 l -1.36281104,-0.0182 0,0.3220039 0,0.3220039 1.54451904,0.018031 c 0.849485,0.00992 3.595024,0.030364 6.1011974,0.045437 2.5061735,0.015073 4.9686665,0.032761 5.4722075,0.039305 0.503541,0.00654 0.916538,0.00982 0.917772,0.00728 z M 10.384493,1.3716629 c 0,-0.2165355 0.01018,-0.38950757 0.02261,-0.38438245 0.01244,0.005125 0.430716,0.17130455 0.929506,0.36928765 0.498791,0.1979831 0.918843,0.3709552 0.933449,0.3843824 0.01518,0.013956 -0.382967,0.024413 -0.929506,0.024413 l -0.956064,0 0,-0.3937007 z"
     id="path4934"
     inkscape:connector-curvature="0" /><path
     style="fill:#000000;fill-opacity:1;stroke:#000000;stroke-width:0.0187211;stroke-miterlimit:4;stroke-dasharray:none;stroke-opacity:1"
     d="m 10.403049,1.541723 c 0,-0.1153148 -0.0049,-0.162489 -0.01097,-0.1048316 -0.006,0.057657 -0.006,0.1520058 0,0.2096631 0.006,0.057657 0.01097,0.010483 0.01097,-0.1048315 z"
     id="path4936"
     inkscape:connector-curvature="0" /><path
     style="fill:#000000;fill-opacity:1;stroke:#000000;stroke-width:0.0187211;stroke-miterlimit:4;stroke-dasharray:none;stroke-opacity:1"
     d="M 11.32143,1.3866981 C 10.845039,1.1952064 10.445631,1.0385314 10.433856,1.0385314 c -0.01178,0 -0.02141,0.1572474 -0.02141,0.3494386 l 0,0.3494386 0.887574,-0.00127 0.887574,-0.00127 -0.866165,-0.3481666 z"
     id="path4938"
     inkscape:connector-curvature="0" /></svg>