<?xml version="1.0" encoding="UTF-8" standalone="no"?>
<!-- Generator: Adobe Illustrator 16.0.0, SVG Export Plug-In . SVG Version: 6.00 Build 0)  -->

<svg
   xmlns:dc="http://purl.org/dc/elements/1.1/"
   xmlns:cc="http://creativecommons.org/ns#"
   xmlns:rdf="http://www.w3.org/1999/02/22-rdf-syntax-ns#"
   xmlns:svg="http://www.w3.org/2000/svg"
   xmlns="http://www.w3.org/2000/svg"
   xmlns:sodipodi="http://sodipodi.sourceforge.net/DTD/sodipodi-0.dtd"
   xmlns:inkscape="http://www.inkscape.org/namespaces/inkscape"
   version="1.1"
   id="svg2"
   inkscape:output_extension="org.inkscape.output.svg.inkscape"
   sodipodi:docname="Rumbo_Echado.svg"
   inkscape:version="0.92.3 (2405546, 2018-03-11)"
   sodipodi:version="0.32"
   x="0px"
   y="0px"
   width="580px"
   height="580px"
   viewBox="0 0 580 580"
   enable-background="new 0 0 580 580"
   xml:space="preserve"><metadata
   id="metadata3009"><rdf:RDF><cc:Work
       rdf:about=""><dc:format>image/svg+xml</dc:format><dc:type
         rdf:resource="http://purl.org/dc/dcmitype/StillImage" /><dc:title /></cc:Work></rdf:RDF></metadata>
<defs
   id="defs2999"><marker
   inkscape:stockid="Arrow2Sstart"
   orient="auto"
   refY="0.0"
   refX="0.0"
   id="Arrow2Sstart"
   style="overflow:visible"><path
     id="path3815"
     style="fill-rule:evenodd;stroke-width:0.62500000;stroke-linejoin:round"
     d="M 8.7185878,4.0337352 L -2.2072895,0.016013256 L 8.7185884,-4.0017078 C 6.9730900,-1.6296469 6.9831476,1.6157441 8.7185878,4.0337352 z "
     transform="scale(0.3) translate(-2.3,0)" /></marker><marker
   inkscape:stockid="Arrow2Send"
   orient="auto"
   refY="0.0"
   refX="0.0"
   id="Arrow2Send"
   style="overflow:visible;"><path
     id="path3818"
     style="fill-rule:evenodd;stroke-width:0.62500000;stroke-linejoin:round;"
     d="M 8.7185878,4.0337352 L -2.2072895,0.016013256 L 8.7185884,-4.0017078 C 6.9730900,-1.6296469 6.9831476,1.6157441 8.7185878,4.0337352 z "
     transform="scale(0.3) rotate(180) translate(-2.3,0)" /></marker><marker
   inkscape:stockid="Arrow1Mstart"
   orient="auto"
   refY="0.0"
   refX="0.0"
   id="Arrow1Mstart"
   style="overflow:visible"><path
     id="path3791"
     d="M 0.0,0.0 L 5.0,-5.0 L -12.5,0.0 L 5.0,5.0 L 0.0,0.0 z "
     style="fill-rule:evenodd;stroke:#000000;stroke-width:1.0pt"
     transform="scale(0.4) translate(10,0)" /></marker><marker
   inkscape:stockid="Club"
   orient="auto"
   refY="0.0"
   refX="0.0"
   id="Club"
   style="overflow:visible"><path
     id="path4014"
     d="M -1.5971367,-7.0977635 C -3.4863874,-7.0977635 -5.0235187,-5.5606321 -5.0235187,-3.6713813 C -5.0235187,-3.0147015 -4.7851656,-2.4444556 -4.4641095,-1.9232271 C -4.5028609,-1.8911157 -4.5437814,-1.8647646 -4.5806531,-1.8299921 C -5.2030765,-2.6849849 -6.1700514,-3.2751330 -7.3077730,-3.2751330 C -9.1970245,-3.2751331 -10.734155,-1.7380016 -10.734155,0.15124914 C -10.734155,2.0404999 -9.1970245,3.5776313 -7.3077730,3.5776313 C -6.3143268,3.5776313 -5.4391540,3.1355702 -4.8137404,2.4588126 C -4.9384274,2.8137041 -5.0235187,3.1803000 -5.0235187,3.5776313 C -5.0235187,5.4668819 -3.4863874,7.0040135 -1.5971367,7.0040135 C 0.29211394,7.0040135 1.8292454,5.4668819 1.8292454,3.5776313 C 1.8292454,2.7842354 1.5136868,2.0838028 1.0600576,1.5031550 C 2.4152718,1.7663868 3.7718375,2.2973711 4.7661444,3.8340272 C 4.0279463,3.0958289 3.5540908,1.7534117 3.5540908,-0.058529361 L 2.9247554,-0.10514681 L 3.5074733,-0.12845553 C 3.5074733,-1.9403966 3.9580199,-3.2828138 4.6962183,-4.0210121 C 3.7371277,-2.5387813 2.4390549,-1.9946496 1.1299838,-1.7134486 C 1.5341802,-2.2753578 1.8292454,-2.9268556 1.8292454,-3.6713813 C 1.8292454,-5.5606319 0.29211394,-7.0977635 -1.5971367,-7.0977635 z "
     style="fill-rule:evenodd;stroke:#000000;stroke-width:0.74587913pt"
     transform="scale(0.6)" /></marker><marker
   inkscape:stockid="Arrow2Mend"
   orient="auto"
   refY="0.0"
   refX="0.0"
   id="Arrow2Mend"
   style="overflow:visible;"><path
     id="path3812"
     style="fill-rule:evenodd;stroke-width:0.62500000;stroke-linejoin:round;"
     d="M 8.7185878,4.0337352 L -2.2072895,0.016013256 L 8.7185884,-4.0017078 C 6.9730900,-1.6296469 6.9831476,1.6157441 8.7185878,4.0337352 z "
     transform="scale(0.6) rotate(180) translate(0,0)" /></marker><marker
   inkscape:stockid="Arrow2Mstart"
   orient="auto"
   refY="0.0"
   refX="0.0"
   id="Arrow2Mstart"
   style="overflow:visible"><path
     id="path3809"
     style="fill-rule:evenodd;stroke-width:0.62500000;stroke-linejoin:round"
     d="M 8.7185878,4.0337352 L -2.2072895,0.016013256 L 8.7185884,-4.0017078 C 6.9730900,-1.6296469 6.9831476,1.6157441 8.7185878,4.0337352 z "
     transform="scale(0.6) translate(0,0)" /></marker><marker
   inkscape:stockid="Arrow2Lstart"
   orient="auto"
   refY="0.0"
   refX="0.0"
   id="Arrow2Lstart"
   style="overflow:visible"><path
     id="path3803"
     style="fill-rule:evenodd;stroke-width:0.62500000;stroke-linejoin:round"
     d="M 8.7185878,4.0337352 L -2.2072895,0.016013256 L 8.7185884,-4.0017078 C 6.9730900,-1.6296469 6.9831476,1.6157441 8.7185878,4.0337352 z "
     transform="scale(1.1) translate(1,0)" /></marker>
	
	
		<inkscape:perspective
   inkscape:vp_z="580 : 290 : 1"
   inkscape:vp_y="0 : 1000 : 0"
   inkscape:vp_x="0 : 290 : 1"
   sodipodi:type="inkscape:persp3d"
   id="perspective24"
   inkscape:persp3d-origin="290 : 193.33333 : 1">
		</inkscape:perspective>
	
		<inkscape:perspective
   inkscape:vp_z="612.164 : 306.58551 : 1"
   inkscape:vp_y="0 : 1000 : 0"
   inkscape:vp_x="0 : 306.58551 : 1"
   sodipodi:type="inkscape:persp3d"
   id="perspective2683"
   inkscape:persp3d-origin="306.082 : 204.39034 : 1">
		</inkscape:perspective>
	
		<inkscape:perspective
   inkscape:vp_z="612.164 : 306.58551 : 1"
   inkscape:vp_y="0 : 1000 : 0"
   inkscape:vp_x="0 : 306.58551 : 1"
   sodipodi:type="inkscape:persp3d"
   id="perspective2953"
   inkscape:persp3d-origin="306.082 : 204.39034 : 1">
		</inkscape:perspective>
	
		<inkscape:perspective
   inkscape:vp_z="361.87201 : 245.89301 : 1"
   inkscape:vp_y="0 : 1000 : 0"
   inkscape:vp_x="0 : 245.89301 : 1"
   sodipodi:type="inkscape:persp3d"
   id="perspective3071"
   inkscape:persp3d-origin="180.936 : 163.92867 : 1">
		</inkscape:perspective>
	
		<inkscape:perspective
   inkscape:vp_z="1 : 0.5 : 1"
   inkscape:vp_y="0 : 1000 : 0"
   inkscape:vp_x="0 : 0.5 : 1"
   sodipodi:type="inkscape:persp3d"
   id="perspective3724"
   inkscape:persp3d-origin="0.5 : 0.33333333 : 1">
		</inkscape:perspective>
</defs>
<sodipodi:namedview
   showgrid="false"
   inkscape:cy="369.32413"
   inkscape:cx="353.79421"
   inkscape:zoom="0.70710678"
   pagecolor="#ffffff"
   bordercolor="#666666"
   guidetolerance="10.0"
   objecttolerance="10.0"
   gridtolerance="10.0"
   borderopacity="1.0"
   id="base"
   inkscape:window-maximized="1"
   inkscape:current-layer="svg2"
   inkscape:window-y="-8"
   inkscape:window-x="-8"
   inkscape:pageopacity="0.0"
   inkscape:pageshadow="2"
   inkscape:window-width="1920"
   inkscape:window-height="1017"
   inkscape:snap-bbox="true"
   inkscape:bbox-paths="true"
   inkscape:bbox-nodes="true"
   inkscape:snap-bbox-edge-midpoints="true"
   inkscape:snap-bbox-midpoints="true"
   inkscape:object-paths="true"
   inkscape:snap-intersection-paths="true"
   inkscape:object-nodes="true"
   inkscape:snap-smooth-nodes="true"
   inkscape:snap-midpoints="true"
   inkscape:snap-object-midpoints="true"
   inkscape:snap-center="true"
   inkscape:snap-page="true"
   showguides="true"
   inkscape:guide-bbox="true">
	<sodipodi:guide
   position="-654.78088,258.80108"
   orientation="1,0"
   id="guide4594"
   inkscape:locked="false" /></sodipodi:namedview>

<path
   style="fill:none;stroke:#000000;stroke-width:18.89763832;stroke-linecap:butt;stroke-linejoin:miter;stroke-miterlimit:4;stroke-dasharray:none;stroke-opacity:1"
   d="m 292.66908,0 -0.92734,128.99814 C 290.66101,279.3321 293.86356,403.96643 288.49957,580"
   id="path3059"
   inkscape:connector-curvature="0"
   sodipodi:nodetypes="ccc" /><path
   style="fill:none;stroke:#000000;stroke-width:18.89763832;stroke-linecap:butt;stroke-linejoin:round;stroke-miterlimit:4;stroke-dasharray:none;stroke-opacity:1"
   d="M 290.58433,290 H 511 h 29 40"
   id="path38"
   inkscape:connector-curvature="0"
   sodipodi:nodetypes="cccc" /><circle
   id="path4640"
   style="fill:#000000;stroke:none"
   cx="179.60512"
   cy="0"
   r="1.5" /></svg>